<?xml version="1.0" encoding="UTF-8"?>
<svg id="Layer_1" data-name="Layer 1" xmlns="http://www.w3.org/2000/svg" viewBox="0 0 1283.45 192.16"><metadata><c2pa:manifest xmlns:c2pa="http://c2pa.org/manifest">AAA0RWp1bWIAAAAeanVtZGMycGEAEQAQgAAAqgA4m3EDYzJwYQAAADQfanVtYgAAAEdqdW1kYzJtYQARABCAAACqADibcQN1cm46dXVpZDoyNzcyZjA4NC1kMjk2LTRmZmQtOGU1NC02ZTE5NmMyYjRjZWEAAAABtGp1bWIAAAApanVtZGMyYXMAEQAQgAAAqgA4m3EDYzJwYS5hc3NlcnRpb25zAAAAANdqdW1iAAAAJmp1bWRjYm9yABEAEIAAAKoAOJtxA2MycGEuYWN0aW9ucwAAAACpY2JvcqFnYWN0aW9uc4GjZmFjdGlvbmtjMnBhLmVkaXRlZG1zb2Z0d2FyZUFnZW50bUFkb2JlIEZpcmVmbHlxZGlnaXRhbFNvdXJjZVR5cGV4U2h0dHA6Ly9jdi5pcHRjLm9yZy9uZXdzY29kZXMvZGlnaXRhbHNvdXJjZXR5cGUvY29tcG9zaXRlV2l0aFRyYWluZWRBbGdvcml0aG1pY01lZGlhAAAArGp1bWIAAAAoanVtZGNib3IAEQAQgAAAqgA4m3EDYzJwYS5oYXNoLmRhdGEAAAAAfGNib3KlamV4Y2x1c2lvbnOBomVzdGFydBjMZmxlbmd0aBlFtGRuYW1lbmp1bWJmIG1hbmlmZXN0Y2FsZ2ZzaGEyNTZkaGFzaFggIiBnrV732BGPRyD4ta13R9P/KAJg3ZSI0mhKCeZ1MldjcGFkSQAAAAAAAAAAAAAAAgxqdW1iAAAAJGp1bWRjMmNsABEAEIAAAKoAOJtxA2MycGEuY2xhaW0AAAAB4GNib3KoaGRjOnRpdGxlb0dlbmVyYXRlZCBJbWFnZWlkYzpmb3JtYXRtaW1hZ2Uvc3ZnK3htbGppbnN0YW5jZUlEeCx4bXA6aWlkOjE5YzI1NjY4LTU0OTktNGM3NS04NWFlLWE1ZGQ1YmVhZDNiZG9jbGFpbV9nZW5lcmF0b3J4N0Fkb2JlX0lsbHVzdHJhdG9yLzMwLjAgYWRvYmVfYzJwYS8wLjEyLjIgYzJwYS1ycy8wLjMyLjV0Y2xhaW1fZ2VuZXJhdG9yX2luZm+Bv2RuYW1lcUFkb2JlIElsbHVzdHJhdG9yZ3ZlcnNpb25kMzAuMP9pc2lnbmF0dXJleBlzZWxmI2p1bWJmPWMycGEuc2lnbmF0dXJlamFzc2VydGlvbnOComN1cmx4J3NlbGYjanVtYmY9YzJwYS5hc3NlcnRpb25zL2MycGEuYWN0aW9uc2RoYXNoWCBKacG9/6jeQTB4viTtzPgxOsHRZJU0VnGgDWsGszfUr6JjdXJseClzZWxmI2p1bWJmPWMycGEuYXNzZXJ0aW9ucy9jMnBhLmhhc2guZGF0YWRoYXNoWCB1xN+d+d90gGzXnVicp5PY4v5N1lq52FXg60dxTKV/LWNhbGdmc2hhMjU2AAAwEGp1bWIAAAAoanVtZGMyY3MAEQAQgAAAqgA4m3EDYzJwYS5zaWduYXR1cmUAAAAv4GNib3LShFkM76IBOCQYIYJZBj0wggY5MIIEIaADAgECAhAVjf8nrCPSuCVLTmM3Hh2eMA0GCSqGSIb3DQEBCwUAMHUxCzAJBgNVBAYTAlVTMSMwIQYDVQQKExpBZG9iZSBTeXN0ZW1zIEluY29ycG9yYXRlZDEdMBsGA1UECxMUQWRvYmUgVHJ1c3QgU2VydmljZXMxIjAgBgNVBAMTGUFkb2JlIFByb2R1Y3QgU2VydmljZXMgRzMwHhcNMjQxMDE1MDAwMDAwWhcNMjUxMDE1MjM1OTU5WjCBqzETMBEGA1UEAwwKQWRvYmUgQzJQQTEoMCYGA1UECwwfQ29udGVudCBBdXRoZW50aWNpdHkgSW5pdGlhdGl2ZTETMBEGA1UECgwKQWRvYmUgSW5jLjERMA8GA1UEBwwIU2FuIEpvc2UxEzARBgNVBAgMCkNhbGlmb3JuaWExCzAJBgNVBAYTAlVTMSAwHgYJKoZIhvcNAQkBFhFjYWktb3BzQGFkb2JlLmNvbTCCASIwDQYJKoZIhvcNAQEBBQADggEPADCCAQoCggEBAMMQwYHQfT1y6TFz8OaDYGJBVgzz9Wkn7YfU2TyDTrTkJYadb+IfoTMWVhY5Gd0SUbqEga7EkmAWhH4gzCorIv7DsbhRygVf/5da790q464sQDVyJaoxnSGMnWjGhWv+aLxc/5uPklM9HHGM6sPr0gM7kckhp6YJvBpo/khCXC/xiB86lPW1MtzbIs2NqGNvMo99q25DqngA0jOdTqiCSpaBARRXsczLp86VPitrC6oXqEfBSTGkdHxl2v4Kkc4ZIgRYcFISz0vbOvkwp89PVGTJV23Rv4hSo91DxVA46odMLRYHM9uA61JWlnopbSh6LspgR7oq875jhtFbUj3qcTkCAwEAAaOCAYwwggGIMAwGA1UdEwEB/wQCMAAwDgYDVR0PAQH/BAQDAgeAMB4GA1UdJQQXMBUGCSqGSIb3LwEBDAYIKwYBBQUHAwQwgY4GA1UdIASBhjCBgzCBgAYJKoZIhvcvAQIDMHMwcQYIKwYBBQUHAgIwZQxjWW91IGFyZSBub3QgcGVybWl0dGVkIHRvIHVzZSB0aGlzIExpY2Vuc2UgQ2VydGlmaWNhdGUgZXhjZXB0IGFzIHBlcm1pdHRlZCBieSB0aGUgbGljZW5zZSBhZ3JlZW1lbnQuMF0GA1UdHwRWMFQwUqBQoE6GTGh0dHA6Ly9wa2ktY3JsLnN5bWF1dGguY29tL2NhXzdhNWMzYTBjNzMxMTc0MDZhZGQxOTMxMmJjMWJjMjNmL0xhdGVzdENSTC5jcmwwNwYIKwYBBQUHAQEEKzApMCcGCCsGAQUFBzABhhtodHRwOi8vcGtpLW9jc3Auc3ltYXV0aC5jb20wHwYDVR0jBBgwFoAUVyl6Mk3M/uQ1TsAfJHPOc1Or32owDQYJKoZIhvcNAQELBQADggIBAKq5ehS0PnPS2Gn9IoMk4BKzS/V5ponok96IShXrydwTe5FpGQ9c521cN151+bYEGiqvgIkgpXTcWBCqlPkavS69uhhoJQUgNLPw7NpMPti5Z05qIwBwh9wr1UW4Rhx62rIZp34MJhdU0pGlpOzcRIW7fcEKIhDJC0kHjOEuArvte+hcxHcvs85A5EVqnkjkDv6htlkbaP7yKt9BAn+r+hbWsySNQliKoQSuaCYqEjWy7AlSYWq91HGvQ9dbo3mVuJNozwrJ864k5halX7Xd5Nkl1EIO8EHEHF3ygSLVmbfM7Z9CGKGcyWtcfZfXb1ygCbzbA6M+Lg3q0vM/a8y7BEL8y9cj206ePv+pk0wFrKGg7ZpGYJt1/rH3z1918zBZn8yB4mH1I2uZyitm7OD+9bYrf9VPxQ9sXZac2UrqUagjBs/lE3lyPCKzeWUf/hfK0rJkQErY54IM/8A7nMHA5SW2OP0SqtwawIuC2pizCH8KP3Wy+eUw5SDnexwn5koGm3NVjtCo4ty1v1WZz/VRvFolBvlqrTdTkCAGZhVDlnV0Bi2oPiNTmmdQVyQzbCYl3INkxjQUhD6OOAJH5/TMxRisgeVLqzDeDR9KpWpoa4SoldPm+9xY8d99D/368QZs8eTaQEITSpLMfheM9UvAMtaNkwSJJHgBWw88vH/xcbsrWQalMIIGoTCCBImgAwIBAgIQDKi2VHuJ5tIGiXXNi5uJ4jANBgkqhkiG9w0BAQsFADBsMQswCQYDVQQGEwJVUzEjMCEGA1UEChMaQWRvYmUgU3lzdGVtcyBJbmNvcnBvcmF0ZWQxHTAbBgNVBAsTFEFkb2JlIFRydXN0IFNlcnZpY2VzMRkwFwYDVQQDExBBZG9iZSBSb290IENBIEcyMB4XDTE2MTEyOTAwMDAwMFoXDTQxMTEyODIzNTk1OVowdTELMAkGA1UEBhMCVVMxIzAhBgNVBAoTGkFkb2JlIFN5c3RlbXMgSW5jb3Jwb3JhdGVkMR0wGwYDVQQLExRBZG9iZSBUcnVzdCBTZXJ2aWNlczEiMCAGA1UEAxMZQWRvYmUgUHJvZHVjdCBTZXJ2aWNlcyBHMzCCAiIwDQYJKoZIhvcNAQEBBQADggIPADCCAgoCggIBALcfLr29CbNcSGz+DIOubAHqUXglpIA+iaexsohk2vaJdoH5+R3zlfx4mI2Yjs/k7hxVPg1zWnfOsRKoFXhlTJbyBxnvxB3CgcbxA13ZU1wecyBJH5dP0hp+yer01/DDcm30oveXkA1DmfX4wmqvjwRY0uWX3jZs4v8kfjLANIyiqFmq0kQhRRQaVBUFnwIC8lzssTp10DkLnY8TY+lrtF9CAdd/iB9dVnCnFhFlzOI+I4eoS8tvQndxKFRt6MXFXpzBfxDIA9rV48eDVG0zQdf4PfjEejcOTIaeZP4N2rTRMQMYbboAvk90g0oUhCX7NqrookVB7V90YTnCtbNTiYE+bNrPcRsuf7sVaXACGitiogyV1t8cTfJ1z5pNTUlbv5sbX2qa+E70iW4a1O1AN6oUGPZ+Dp9rGx9V9U8Puy03pPCggOWQ4IThET4iKfybfPd6qL9WxOayZGoHFYNFqo4fPTYQmgQPFckbd6L5RsginTVdlC925+b3RbE5O6qpqfZmpM9f0rlV2MSH+i+vvEVzmrV1mj5JrnLixNUzznj+0tTeSU6BQrPNJdg9hLcaEFxgkePCv3E1Eec1f30PoXSDs6KNJxZ++2PGHXdpO/8fQRO/KZqHjJ8OlV2H1wrlhII+qe46Wy6MUDKFjAlc5YO9llTYSRZUsOGg/H3Ons3hAgMBAAGjggE0MIIBMDASBgNVHRMBAf8ECDAGAQH/AgEAMDUGA1UdHwQuMCwwKqAooCaGJGh0dHA6Ly9jcmwuYWRvYmUuY29tL2Fkb2Jlcm9vdGcyLmNybDAOBgNVHQ8BAf8EBAMCAQYwFAYDVR0lBA0wCwYJKoZIhvcvAQEHMFcGA1UdIARQME4wTAYJKoZIhvcvAQIDMD8wPQYIKwYBBQUHAgEWMWh0dHBzOi8vd3d3LmFkb2JlLmNvbS9taXNjL3BraS9wcm9kX3N2Y2VfY3BzLmh0bWwwJAYDVR0RBB0wG6QZMBcxFTATBgNVBAMTDFNZTUMtNDA5Ni0zMzAdBgNVHQ4EFgQUVyl6Mk3M/uQ1TsAfJHPOc1Or32owHwYDVR0jBBgwFoAUphzhbVQkTKiPSHK/bqmM1eTsMdQwDQYJKoZIhvcNAQELBQADggIBAHHO5QeMptwt3MjgO2VeAJKBleuVICSvn2k4Xcl88bjapU0AZTslwRhcnr5Zt9wbBjtZgyX6M7si8k9vuyFcVhb1ucmDFfuUtTXgoTFyGZws1jV57oiEEnZjw/NkxFQpJ3kKRRE+DQ8EsaPP8pH8Oh8fH4bis9MI4Y5FjF5it3TWVyLmFXG8pxy8iTswPr1lN7B9k9Iz7RaexTd/RmZ3uGBtGlTJZx4bR4cWl1Qor9kVaEeMNULbyh0Kc3zzm0edwpe+Ii0rRlRSj8Ai2EUqWEReyer1Uv18VuC87zdm+lRCjnLyZjdy4acRUZd2GM1vncJ8LW7h1uliZZo332y5tTMSxRpRveWgs99V/MM6mDbL2/fuQF3L/C5evbS15jtTrbGP98CCzVBKeFS2UxN8Kpt5/ITJwpWYoismQkuy+BNJgpW8fgUUjB93laOo4L3uNf3ytxUDOEAjSJKRrOxY4y8vqbQvicslqnH7zkaxVfxjoAeYQ/huYISXCKXooA/5R7AkWLDmubBXakRIcCFi5klrTcHy2XSd3ZAnO8kaZt4GpeqkX05GKcUzccSsrym5GiQ6MUfb7Vqwt4ja0HfVb8Qt017bs6B26rpnqoHAKnn1hfburJ0OEPRZF83riQKzbkrzyIYAY1bYIB9MNL5v5ZgkGIgv2NdhngsX4GJS9927o2ZzaWdUc3ShaXRzdFRva2Vuc4GhY3ZhbFkOWTCCDlUwAwIBADCCDkwGCSqGSIb3DQEHAqCCDj0wgg45AgEDMQ8wDQYJYIZIAWUDBAIBBQAwgYIGCyqGSIb3DQEJEAEEoHMEcTBvAgEBBglghkgBhv1sBwEwMTANBglghkgBZQMEAgEFAAQgU+HtOml7fp/5ZJ0rVcWHR5RkKpRV24sbac7fpFp7784CEBbtsBA/pTWQpRZIm6lbPVgYDzIwMjUwOTEzMDExMTIxWgIJALHQ5uQ6unlnoIIL2jCCBR4wggMGoAMCAQICEAkZDcEsnIfbMv0KtVC97UswDQYJKoZIhvcNAQELBQAwaTELMAkGA1UEBhMCVVMxFzAVBgNVBAoTDkRpZ2lDZXJ0LCBJbmMuMUEwPwYDVQQDEzhEaWdpQ2VydCBUcnVzdGVkIEc0IFRpbWVTdGFtcGluZyBSU0E0MDk2IFNIQTI1NiAyMDI1IENBMTAeFw0yNTA2MTEwMDAwMDBaFw0zNjA5MTAyMzU5NTlaMF8xCzAJBgNVBAYTAlVTMRcwFQYDVQQKEw5EaWdpQ2VydCwgSW5jLjE3MDUGA1UEAxMuQWRvYmUgU0hBMjU2IEVDQzI1NiBUaW1lc3RhbXAgUmVzcG9uZGVyIDIwMjUgMTBZMBMGByqGSM49AgEGCCqGSM49AwEHA0IABDqZydXZSO9L84jXxrJwIPPeIspw7/k8jP1iwxb5ZO0PbiN3ijVubsdbzV38sK17hnS0u5hnGOEdH2EnsUwRqfKjggGVMIIBkTAMBgNVHRMBAf8EAjAAMB0GA1UdDgQWBBQgdqGjbnEVj3SVDa6kLKQ2P1gZFTAfBgNVHSMEGDAWgBTvb1NK6eQGfHrK4pBW9i/USezLTjAOBgNVHQ8BAf8EBAMCB4AwFgYDVR0lAQH/BAwwCgYIKwYBBQUHAwgwgZUGCCsGAQUFBwEBBIGIMIGFMCQGCCsGAQUFBzABhhhodHRwOi8vb2NzcC5kaWdpY2VydC5jb20wXQYIKwYBBQUHMAKGUWh0dHA6Ly9jYWNlcnRzLmRpZ2ljZXJ0LmNvbS9EaWdpQ2VydFRydXN0ZWRHNFRpbWVTdGFtcGluZ1JTQTQwOTZTSEEyNTYyMDI1Q0ExLmNydDBfBgNVHR8EWDBWMFSgUqBQhk5odHRwOi8vY3JsMy5kaWdpY2VydC5jb20vRGlnaUNlcnRUcnVzdGVkRzRUaW1lU3RhbXBpbmdSU0E0MDk2U0hBMjU2MjAyNUNBMS5jcmwwIAYDVR0gBBkwFzAIBgZngQwBBAIwCwYJYIZIAYb9bAcBMA0GCSqGSIb3DQEBCwUAA4ICAQBKnP4qzrnk6bae64mNkuAvegVfF4WZ752PCIF1U+QchK/h9ENe079SAU7s66f6zo6g2tgpDobFpEtS7bcOasJ4TK8F0TlFf8IAS0rjvc+wOyjxzW2aSOoNIfODENGzChf8QdYixJGuMkzxFYHsp3co+NrSO5m2QVWknOqOT92on1RqrKIp8qsJGLAiktTUJ0FEWePq7ElN+HTLvHOv6tY48dUwk17MXneImj3CL5BI5fZ57pmtt0oBgdY7ywz4RkbS/M1pZ6pQ3UuVODntDU8qkoLGIKYqCqzEZeZJxaKxk/OMS5Q7KssP04mPK9c7xJ4e9/rE8XCGcITeBzZ52wftAJV2wnc6kpnsky5vAjYbCoj0yDAacokbfmT7y9AT0wvOJUPfSLjLyPI5J0xp95cdi8bHRoYDAI5szZ7MZKad1Vav0M+HVwZqY0CuNNSRxZEXTKjRTMnB0bXhVCo+XmeWP/a0uqTbToNPYWwgxAoJrjZQlsiFLaF0vGcc3xKmSnJ5TraBThVPllFZqqZu/D7hAUiAdChY94w7A2lUep9YChxva/tuyiaC8qgx3nmSMaNudy3rnGKQRpIx7lOUaM2Z+jNurUELw4sX16oDovhlbVmJ5Ekg/RgGL0SJBfmYfQs3I1YD8K6BiB31vHNEcX71GhVfxqvzfcR8GkY+xFIeTDCCBrQwggScoAMCAQICEA3HrFcF/yGZLkBDIgw6SYYwDQYJKoZIhvcNAQELBQAwYjELMAkGA1UEBhMCVVMxFTATBgNVBAoTDERpZ2lDZXJ0IEluYzEZMBcGA1UECxMQd3d3LmRpZ2ljZXJ0LmNvbTEhMB8GA1UEAxMYRGlnaUNlcnQgVHJ1c3RlZCBSb290IEc0MB4XDTI1MDUwNzAwMDAwMFoXDTM4MDExNDIzNTk1OVowaTELMAkGA1UEBhMCVVMxFzAVBgNVBAoTDkRpZ2lDZXJ0LCBJbmMuMUEwPwYDVQQDEzhEaWdpQ2VydCBUcnVzdGVkIEc0IFRpbWVTdGFtcGluZyBSU0E0MDk2IFNIQTI1NiAyMDI1IENBMTCCAiIwDQYJKoZIhvcNAQEBBQADggIPADCCAgoCggIBALR4MdMKmEFyvjxGwBysddujRmh0tFEXnU2tjQ2UtZmWgyxU7UNqEY81FzJsQqr5G7A6c+Gh/qm8Xi4aPCOo2N8S9SLrC6Kbltqn7SWCWgzbNfiR+2fkHUiljNOqnIVD/gG3SYDEAd4dg2dDGpeZGKe+42DFUF0mR/vtLa4+gKPsYfwEu7EEbkC9+0F2w4QJLVSTEG8yAR2CQWIM1iI5PHg62IVwxKSpO0XaF9DPfNBKS7Zazch8NF5vp7eaZ2CVNxpqumzTCNSOxm+SAWSuIr21Qomb+zzQWKhxKTVVgtmUPAW35xUUFREmDrMxSNlr/NsJyUXzdtFUUt4aS4CEeIY8y9IaaGBpPNXKFifinT7zL2gdFpBP9qh8SdLnEut/GcalNeJQ55IuwnKCgs+nrpuQNfVmUB5KlCX3ZA4x5HHKS+rqBvKWxdCyQEEGcbLe1b8Aw4wJkhU1JrPsFfxW1gaou30yZ46t4Y9F20HHfIY4/6vHespYMQmUiote8ladjS/nJ0+k6MvqzfpzPDOy5y6gqztiT96Fv/9bH7mQyogxG9QEPHrPV6/7umw052AkyiLA6tQbZl1KhBtTasySkuJDpsZGKdlsjg4u70EwgWbVRSX1Wd4+zoFpp4Ra+MlKM2baoD6x0VR4RjSpWM8o5a6D8bpfm4CLKczsG7ZrIGNTAgMBAAGjggFdMIIBWTASBgNVHRMBAf8ECDAGAQH/AgEAMB0GA1UdDgQWBBTvb1NK6eQGfHrK4pBW9i/USezLTjAfBgNVHSMEGDAWgBTs1+OC0nFdZEzfLmc/57qYrhwPTzAOBgNVHQ8BAf8EBAMCAYYwEwYDVR0lBAwwCgYIKwYBBQUHAwgwdwYIKwYBBQUHAQEEazBpMCQGCCsGAQUFBzABhhhodHRwOi8vb2NzcC5kaWdpY2VydC5jb20wQQYIKwYBBQUHMAKGNWh0dHA6Ly9jYWNlcnRzLmRpZ2ljZXJ0LmNvbS9EaWdpQ2VydFRydXN0ZWRSb290RzQuY3J0MEMGA1UdHwQ8MDowOKA2oDSGMmh0dHA6Ly9jcmwzLmRpZ2ljZXJ0LmNvbS9EaWdpQ2VydFRydXN0ZWRSb290RzQuY3JsMCAGA1UdIAQZMBcwCAYGZ4EMAQQCMAsGCWCGSAGG/WwHATANBgkqhkiG9w0BAQsFAAOCAgEAF877FoAc/gc9EXZxML2+C8i1NKZ/zdCHxYgaMH9Pw5tcBnPw6O6FTGNpoV2V4wzSUGvI9NAzaoQk97frPBtIj+ZLzdp+yXdhOP4hCFATuNT+ReOPK0mCefSG+tXqGpYZ3essBS3q8nL2UwM+NMvEuBd/2vmdYxDCvwzJv2sRUoKEfJ+nN57mQfQXwcAEGCvRR2qKtntujB71WPYAgwPyWLKu6RnaID/B0ba2H3LUiwDRAXx1Neq9ydOal95CHfmTnM4I+ZI2rVQfjXQA1WSjjf4J2a7jLzWGNqNX+DF0SQzHU0pTi4dBwp9nEC8EAqoxW6q17r0z0noDjs6+BFo+z7bKSBwZXTRNivYuve3L2oiKNqetRHdqfMTCW/NmKLJ9M+MtucVGyOxiDf06VXxyKkOirv6o02OoXN4bFzK0vlNMsvhlqgF2puE6FndlENSmE+9JGYxOGLS/D284NHNboDGcmWXfwXRy4kbu4QFhOm0xJuF2EZAOk5eCkhSxZON3rGlHqhpB/8MluDezooIs8CVnrpHMiD2wL40mm53+/j7tFaxYKIqL0Q4ssd8xHZnIn/7GELH3IdvG2XlM9q7WP/UwgOkw/HQtyRN62JK4S1C8uw3PdBunvAZapsiI5YKdvlarEvf8EA+8hcpSM9LHJmyrxaFtoza2zNaQ9k+5t1wxggG+MIIBugIBATB9MGkxCzAJBgNVBAYTAlVTMRcwFQYDVQQKEw5EaWdpQ2VydCwgSW5jLjFBMD8GA1UEAxM4RGlnaUNlcnQgVHJ1c3RlZCBHNCBUaW1lU3RhbXBpbmcgUlNBNDA5NiBTSEEyNTYgMjAyNSBDQTECEAkZDcEsnIfbMv0KtVC97UswDQYJYIZIAWUDBAIBBQCggdEwGgYJKoZIhvcNAQkDMQ0GCyqGSIb3DQEJEAEEMBwGCSqGSIb3DQEJBTEPFw0yNTA5MTMwMTExMjFaMCsGCyqGSIb3DQEJEAIMMRwwGjAYMBYEFNeHunkpY5+4wS9KphZRdMvgpYDzMC8GCSqGSIb3DQEJBDEiBCAK7EnzfVWQMrQyXVeoPZYI3cu9ywIPXnP/BKpzn3B7eTA3BgsqhkiG9w0BCRACLzEoMCYwJDAiBCDTI6/iX909FvJvLyWefOSJ24bS2aqweyb1mDcIYIlWeDAKBggqhkjOPQQDAgRHMEUCIF5eJ+5gH5RTANZs7RuWS3ZVLOjtYg1qyTbeFVRPKPA4AiEAi+2WeazGLnsYYhDv8sFp1wNwHHjvFbxvoHD8IE601XJlclZhbHOhaG9jc3BWYWxzgVkI2DCCCNQKAQCgggjNMIIIyQYJKwYBBQUHMAEBBIIIujCCCLYwgZ6iFgQUFymTcv+n+1gy/7LgjrDtqFAG+q0YDzIwMjUwOTA3MjIwMjAwWjBzMHEwSTAJBgUrDgMCGgUABBS733Mle9sjosdOiV3f/BGFqJuLAQQUVyl6Mk3M/uQ1TsAfJHPOc1Or32oCEBWN/yesI9K4JUtOYzceHZ6AABgPMjAyNTA5MDcyMjAyMDBaoBEYDzIwMjUwOTE0MjIwMjAwWjANBgkqhkiG9w0BAQsFAAOCAgEAGJh47/akvJUkgxw7f/eApRGCxQDu37oYliQ1lw5MNZOCS5JvQ5/cS9Ixa4NODHSMVGR1KdyHX0sJze+iFC1ezn52FQN4H6AXpO7uhzQ3cKk716rWdlgAgqrjmm0N1JXeoH+e8/oG7FO6KWQrtCjG/m/qWYRTs9yA6/FdKO975/3LOUtLitmYa9ova0ICys7iFMGS1AIWkfsmASOOU6qRLrLvll12CoTQ5HAdnOBhAw4Em7r4Gq4qBHoJ/mEcPj5t6Cfr7bG1oXN3lO9fC6ozj5VNwUdFHo0l142fQwK2pqrXmuWZOcDZToIUxn6G1gM73cAuSjydC2ltVF6Y/d8nuPGm7I2ulJ5U8BH1Ftk4hK81beBiS5xOB0Mfljg9qD+AXOeRPWWuRG7LuUbrsUNL8WHGSYUPCRGlOrJFrbSYh68Q0xkUy5+0ATAlSYtLeXsl0kzSzHwHUxXAcovOl4lQOmmSVd2hOMFrCuaab2dhw0qjlHA6ozL1YpyfOuvfzD7S4SI8jQEjD7+hf6Veweg/wbr8ln79byHE1enxIDnvkrXN5BHNQ3lHxi+CnPW1LkY/Gy3pcyCxvOhCgrBchlwcJPmVsKPfLdUUC6dSOx2HbvFqaAUkHEG2zSJhpdTqcqX4hT/RPDrYRwB5KpH1Bzg5kWJLPEiJej+vcK4Z5T8OabGgggX9MIIF+TCCBfUwggPdoAMCAQICFF3dTUFdMn+gcIPK1PpjalTs5IV4MA0GCSqGSIb3DQEBCwUAMHUxCzAJBgNVBAYTAlVTMSMwIQYDVQQKExpBZG9iZSBTeXN0ZW1zIEluY29ycG9yYXRlZDEdMBsGA1UECxMUQWRvYmUgVHJ1c3QgU2VydmljZXMxIjAgBgNVBAMTGUFkb2JlIFByb2R1Y3QgU2VydmljZXMgRzMwHhcNMjUwNzE1MjAzMjA4WhcNMjUxMDEzMjAzMjA4WjB6MQswCQYDVQQGEwJVUzEjMCEGA1UEChMaQWRvYmUgU3lzdGVtcyBJbmNvcnBvcmF0ZWQxRjBEBgNVBAMTPUFkb2JlIFByb2R1Y3QgU2VydmljZXMgRzMgT0NTUCBSZXNwb25kZXIgMjAyNS0wNy0xNVQyMDozMjowOFowggIiMA0GCSqGSIb3DQEBAQUAA4ICDwAwggIKAoICAQCi5kbC3dWoXVHDDf3liNRvy2wuUDUt4nG55Nm61kDsYW5PfXtzmTEUt3pRh+5gsQlu6kgoJtJ/Cper+XwDOS/ERSclUiNR74owKdYd8BWS6XX/GcecQKKU//+mfHLINiEEbIJnyFV8esda0P8NqUzgVwAqpyFUxIIAwvOKvwvIRDrPRHPpOkXd+57ae9kmsDIsAmE7OECjfzWQOLqb1+edo8TiVp5guhYaI5BynLXyrvjTWJQYcWLw9htQ/aH2CG48wqePTZCMhX/e7OV+xmjT9+uPuQSTg304aF62Z2/Bpw/KEDD/j0DR2jqLQXaluHaFtqidQGHC7eVKUltleLZTqH6nKwAH4QkwMx9ENP1P/A5CExwef9FWe5cRlvYtq9et6ZHnPRNP/uThbQk+fObt7/i9Gb7+T88Sq1aDQ36MCWzehQT2VkYptdbPbE5bG1V3UKmSK3erymDd73xzQ9cTj0ixnfhg8xR763Y4Jm55/u/tPtbVKguPvPg4K1a4ZHl3i7HiH/tarzoJTlpdivXOPaflH/HtQO4l30kApcgYDA39NSBQPlBJ0Bsde0xDhNPtK1LohnZJteKmdTEvTGXypPOJ3oHrDyltE6dKOv/iB7f6vkjmbx9BKP94RS3tu4Ce0U1349HNUULgTOYy/23W0tjfIpH96McRAsUM3MqoUwIDAQABo3gwdjAdBgNVHQ4EFgQUFymTcv+n+1gy/7LgjrDtqFAG+q0wHwYDVR0jBBgwFoAUVyl6Mk3M/uQ1TsAfJHPOc1Or32owDgYDVR0PAQH/BAQDAgeAMBMGA1UdJQQMMAoGCCsGAQUFBwMJMA8GCSsGAQUFBzABBQQCBQAwDQYJKoZIhvcNAQELBQADggIBAEx04104XyUn291PutEw+hjFeNyNmd+25UVOnuzCHS6pIHJkhVeYbtenVjVRQ8DUfM+RoPJFXKCn+ggJWxllMPRxEAHv9vTIPRVwpYzH86v09Ncdyc5ZPpo1M7qfuxDHr0Th97OiftvZOLRchnbGzUILLxmAU84XBZPnZBzQtay6udN06OqVfTspUEdxghJu4wG4su451wQKV9VtSck+KEZlzjbNTAM3n+p37OXrJsNddeYCNROjoNlxf2dXqqB2A4dukvq1vRNmcqUAjCF4ZEFaQsOHeC9m98Xa22AQh2B6nxElYmEl1vYn0EXwNU4LlFdd1eWcWAycctl6hSYWz5pZlOXlt91yfcQ+u8clRIHiz72pm+oo9fDceQ5aL95+zhDkByTbZc7YCJVuCWWJj70jX5zqfPd9pObdAPP/neZ1+XeMTAFl7tGCTk/MbSsSCDxp2Ob9of5w+jioU8eK2LxsY7RxAU4SEA8Oh02ufxp5w7FcW0CxLzMQl66IpbFrsjYGvRclQ4KAZiHW+339czDhAR2xm39bW8U3Ol4TLhc2vct12A1VQ9yFq1PKPwlYYiKhdZ/5+HSbrhWJFfnmz4VQ4saJN6AYJH8AuAA3q73upxb3RhCnIV05OsvqhbEGDuuGBILduDosjjplgwruRUUx96R07cKvn9yh0FtwOe03Y3BhZFkKeAAAAAAAAAAAAAAAAAAAAAAAAAAAAAAAAAAAAAAAAAAAAAAAAAAAAAAAAAAAAAAAAAAAAAAAAAAAAAAAAAAAAAAAAAAAAAAAAAAAAAAAAAAAAAAAAAAAAAAAAAAAAAAAAAAAAAAAAAAAAAAAAAAAAAAAAAAAAAAAAAAAAAAAAAAAAAAAAAAAAAAAAAAAAAAAAAAAAAAAAAAAAAAAAAAAAAAAAAAAAAAAAAAAAAAAAAAAAAAAAAAAAAAAAAAAAAAAAAAAAAAAAAAAAAAAAAAAAAAAAAAAAAAAAAAAAAAAAAAAAAAAAAAAAAAAAAAAAAAAAAAAAAAAAAAAAAAAAAAAAAAAAAAAAAAAAAAAAAAAAAAAAAAAAAAAAAAAAAAAAAAAAAAAAAAAAAAAAAAAAAAAAAAAAAAAAAAAAAAAAAAAAAAAAAAAAAAAAAAAAAAAAAAAAAAAAAAAAAAAAAAAAAAAAAAAAAAAAAAAAAAAAAAAAAAAAAAAAAAAAAAAAAAAAAAAAAAAAAAAAAAAAAAAAAAAAAAAAAAAAAAAAAAAAAAAAAAAAAAAAAAAAAAAAAAAAAAAAAAAAAAAAAAAAAAAAAAAAAAAAAAAAAAAAAAAAAAAAAAAAAAAAAAAAAAAAAAAAAAAAAAAAAAAAAAAAAAAAAAAAAAAAAAAAAAAAAAAAAAAAAAAAAAAAAAAAAAAAAAAAAAAAAAAAAAAAAAAAAAAAAAAAAAAAAAAAAAAAAAAAAAAAAAAAAAAAAAAAAAAAAAAAAAAAAAAAAAAAAAAAAAAAAAAAAAAAAAAAAAAAAAAAAAAAAAAAAAAAAAAAAAAAAAAAAAAAAAAAAAAAAAAAAAAAAAAAAAAAAAAAAAAAAAAAAAAAAAAAAAAAAAAAAAAAAAAAAAAAAAAAAAAAAAAAAAAAAAAAAAAAAAAAAAAAAAAAAAAAAAAAAAAAAAAAAAAAAAAAAAAAAAAAAAAAAAAAAAAAAAAAAAAAAAAAAAAAAAAAAAAAAAAAAAAAAAAAAAAAAAAAAAAAAAAAAAAAAAAAAAAAAAAAAAAAAAAAAAAAAAAAAAAAAAAAAAAAAAAAAAAAAAAAAAAAAAAAAAAAAAAAAAAAAAAAAAAAAAAAAAAAAAAAAAAAAAAAAAAAAAAAAAAAAAAAAAAAAAAAAAAAAAAAAAAAAAAAAAAAAAAAAAAAAAAAAAAAAAAAAAAAAAAAAAAAAAAAAAAAAAAAAAAAAAAAAAAAAAAAAAAAAAAAAAAAAAAAAAAAAAAAAAAAAAAAAAAAAAAAAAAAAAAAAAAAAAAAAAAAAAAAAAAAAAAAAAAAAAAAAAAAAAAAAAAAAAAAAAAAAAAAAAAAAAAAAAAAAAAAAAAAAAAAAAAAAAAAAAAAAAAAAAAAAAAAAAAAAAAAAAAAAAAAAAAAAAAAAAAAAAAAAAAAAAAAAAAAAAAAAAAAAAAAAAAAAAAAAAAAAAAAAAAAAAAAAAAAAAAAAAAAAAAAAAAAAAAAAAAAAAAAAAAAAAAAAAAAAAAAAAAAAAAAAAAAAAAAAAAAAAAAAAAAAAAAAAAAAAAAAAAAAAAAAAAAAAAAAAAAAAAAAAAAAAAAAAAAAAAAAAAAAAAAAAAAAAAAAAAAAAAAAAAAAAAAAAAAAAAAAAAAAAAAAAAAAAAAAAAAAAAAAAAAAAAAAAAAAAAAAAAAAAAAAAAAAAAAAAAAAAAAAAAAAAAAAAAAAAAAAAAAAAAAAAAAAAAAAAAAAAAAAAAAAAAAAAAAAAAAAAAAAAAAAAAAAAAAAAAAAAAAAAAAAAAAAAAAAAAAAAAAAAAAAAAAAAAAAAAAAAAAAAAAAAAAAAAAAAAAAAAAAAAAAAAAAAAAAAAAAAAAAAAAAAAAAAAAAAAAAAAAAAAAAAAAAAAAAAAAAAAAAAAAAAAAAAAAAAAAAAAAAAAAAAAAAAAAAAAAAAAAAAAAAAAAAAAAAAAAAAAAAAAAAAAAAAAAAAAAAAAAAAAAAAAAAAAAAAAAAAAAAAAAAAAAAAAAAAAAAAAAAAAAAAAAAAAAAAAAAAAAAAAAAAAAAAAAAAAAAAAAAAAAAAAAAAAAAAAAAAAAAAAAAAAAAAAAAAAAAAAAAAAAAAAAAAAAAAAAAAAAAAAAAAAAAAAAAAAAAAAAAAAAAAAAAAAAAAAAAAAAAAAAAAAAAAAAAAAAAAAAAAAAAAAAAAAAAAAAAAAAAAAAAAAAAAAAAAAAAAAAAAAAAAAAAAAAAAAAAAAAAAAAAAAAAAAAAAAAAAAAAAAAAAAAAAAAAAAAAAAAAAAAAAAAAAAAAAAAAAAAAAAAAAAAAAAAAAAAAAAAAAAAAAAAAAAAAAAAAAAAAAAAAAAAAAAAAAAAAAAAAAAAAAAAAAAAAAAAAAAAAAAAAAAAAAAAAAAAAAAAAAAAAAAAAAAAAAAAAAAAAAAAAAAAAAAAAAAAAAAAAAAAAAAAAAAAAAAAAAAAAAAAAAAAAAAAAAAAAAAAAAAAAAAAAAAAAAAAAAAAAAAAAAAAAAAAAAAAAAAAAAAAAAAAAAAAAAAAAAAAAAAAAAAAAAAAAAAAAAAAAAAAAAAAAAAAAAAAAAAAAAAAAAAAAAAAAAAAAAAAAAAAAAAAAAAAAAAAAAAAAAAAAAAAAAAAAAAAAAAAAAAAAAAAAAAAAAAAAAAAAAAAAAAAAAAAAAAAAAAAAAAAAAAAAAAAAAAAAAAAAAAAAAAAAAAAAAAAAAAAAAAAAAAAAAAAAAAAAAAAAAAAAAAAAAAAAAAAAAAAAAAAAAAAAAAAAAAAAAAAAAAAAAAAAAAAAAAAAAAAAAAAAAAAAAAAAAAAAAAAAAAAAAAAAAAAAAAAAAAAAAAAAAAAAAAAAAAAAAAAAAAAAAAAAAAAAAAAAAAAAAAAAAAAAAAAAAAAAAAAAAAAAAAAAAAAAAAAAAAAAAAAAAAAAAAAAAAAAAAAAAAAAAAAAAAAAAAAAAAAAAAAAAAAAAAAAAAAAAAAAAAAAAAAAAAAAAAAAAAAAAAAAAAAAAAAAAAAAAAAAAAAAAAAAAAAAAAAAAAAAAAAAAAAAAAAAAAAAAAAAAAAAAAAAAAAAAAAAAAAAAAAAAAAAAAAAAAAAAAAAAAAAAAAAAAAAAAAAAAAAAAAAAAAAAAAAAAAAAAAAAAAAAAAAAAAAAAAAAAAAAAAAAAAAAAAAAAAAAAAAAAAAAAAAAAAAAAAAAAAAAAAAAAAAAAAAAAAAAAAAAAAAAAAAAAAAAAAAAAAAAAAAAAAAAAAAAAAAAAAAAAAAAAAAAAAAAAAAAAAAAAAAAAAAAAAAAAAAAAAAAAAAAAAAAAAAAAAAAAAAAAAAAAAAAAAAAAAAAAAAAAAAAAAAAAAAAAAAAAAAAAAAAAAAAAAAAAAAAAAAAAAAAAAAAAAAAAAAAAAAAAAAAAAAAAAAAAAAAAAAAAAAAAAAAAAAAAAAAAAAAAAAAAAAAAAAAAAAAAAAAAAAAAAAAAAAAAAAAAAAAAAAAAAAAAAAAAAAAAAAAAAAAAAAAAAAAAAAAAAAAAAAAAAAAAAAAAAAAAAAAAAAAAAAAAAAAAAAAAAAAAAAAAAAAAAAD2WQEAJF3NxKQ3IoG2ZrXtWSCpg1BvrLB8trY7ZxYc9TLajRjgUt+mGPxMr/Tt8Uvfd0UCezsPEaKNB9di6TxiCqjGukARQkB2gUcp1tFZmnrROEgDI2AIOrzoguSQ+whKGN8vzD2sihVsGqUbQ/rB4nfGmYYATywyAetN8+mld3VBvzFcuijqfq/vpzTuUTO8rGu856RaGlhEoqzXM6ZApB6KhMczauh6QsttYPGtYZxWP18zDpmEoyB+42qKw6c3tVzBmRn6r69I0BZGrZrRU2UjLkVyaRvvRY/ffm8XFNFllptezzEqx53T5f8+8737zaAxhJ2Q0wjPN/W8vn6CJsZ+sw==</c2pa:manifest></metadata>
  <defs>
    <style>
      .cls-1 {
        fill: #0364ff;
      }
    </style>
  </defs>
  <g>
    <path class="cls-1" d="M.37,51.31c.75-2.4,11.88-.76,14.49-.49,19.34,2.04,37.17,7.84,50.48,22.52s11.99,29.96,17,47.02c.43,1.46-.55,1.74,2.02,1.45,8.53-21.55,19.75-41.93,31.94-61.6.37-1.27-.67-1.72-1.63-2.18-7.39-3.52-25.58-.14-20.15-13.59L146.04,1.98c6.17-3.81,10.7-2.17,11.38,5.28,1.38,15.08,1.39,46.02,0,61.08-1.68,18.09-16.29,4.66-24.54-.52-15.43,24.61-39.51,50.44-42.48,80.5-.77,7.8,1.71,25.36-2.01,30.99-3.9,5.9-13.31,6.89-14.77-1.24-1.69-9.41,1.82-24.88.8-35.81-.64-6.92-2.95-9.14-9.06-11.94-16.71-7.69-34.11-7.22-48.48-21.52C10.24,102.2.37,80.51.37,71.31c0-4.12-.84-17.3,0-20Z"/>
    <path class="cls-1" d="M99.37,150.31c2.93-24.72,32.31-39.74,55.31-35.26,5.64,1.1,2.49,11.4,1.4,15.96-7.11,29.51-28.24,38.45-56.7,39.8.55-6.52-.76-14.13,0-20.5Z"/>
  </g>
  <g>
    <path class="cls-1" d="M275.31,152.71h-.3c-7.8,10.95-19.35,16.35-33.45,16.35-30.15,0-50.4-22.95-50.4-55.5s17.85-56.25,51.6-56.25c24.9,0,40.2,13.5,43.65,34.5h-13.95c-3-14.25-13.05-22.8-30-22.8-25.8,0-37.5,19.35-37.5,44.55s15.3,43.8,37.05,43.8,32.4-15,32.4-33v-2.55h-32.25v-11.7h45.75v56.7h-8.7l-3.9-14.1Z"/>
    <path class="cls-1" d="M316.86,102.16h.3c4.65-7.5,12.75-13.8,23.1-13.8,2.25,0,3.45.3,4.95.9v11.7h-.45c-1.8-.6-3-.75-5.4-.75-12,0-22.5,9-22.5,23.55v43.05h-12.15v-77.55h12.15v12.9Z"/>
    <path class="cls-1" d="M348.81,128.11c0-22.5,14.4-40.8,37.5-40.8s37.35,18.3,37.35,40.8-14.1,40.8-37.35,40.8-37.5-18.3-37.5-40.8ZM411.21,128.11c0-17.1-8.4-30.75-24.9-30.75s-25.05,13.65-25.05,30.75,8.55,30.6,25.05,30.6,24.9-13.5,24.9-30.6Z"/>
    <path class="cls-1" d="M426.66,89.26h13.05l13.65,47.85c1.8,6.45,4.2,16.65,4.2,16.65h.3s2.25-10.2,3.9-16.35l13.05-48.15h12.75l12.6,48.15c1.65,6.3,3.75,16.35,3.75,16.35h.3s2.4-10.2,4.35-16.65l14.4-47.85h12.6l-25.35,77.55h-12.45l-12.9-46.95c-1.8-6.45-3.75-16.2-3.75-16.2h-.3s-2.1,9.75-3.9,16.2l-13.05,46.95h-12.6l-24.6-77.55Z"/>
    <path class="cls-1" d="M543.51,59.56h81.3v21.9h-54.75v19.2h46.95v20.7h-46.95v22.95h55.65v22.5h-82.2V59.56Z"/>
    <path class="cls-1" d="M632.61,145.36c0-16.95,13.5-22.05,29.4-24.15,14.4-1.8,19.5-3.3,19.5-8.55,0-4.95-3.15-8.25-10.5-8.25-7.8,0-11.7,3.45-12.45,9.9h-22.5c.6-14.25,11.55-26.4,34.8-26.4,11.55,0,19.35,2.1,24.9,6.3,6.6,4.8,9.75,12.3,9.75,21.9v38.7c0,6.15.6,9.6,2.7,10.95v1.05h-23.7c-1.2-1.65-1.95-4.65-2.55-8.55h-.3c-4.5,6.45-11.25,10.5-22.8,10.5-15.3,0-26.25-8.25-26.25-23.4ZM682.11,139.36v-9.15c-3.15,1.65-7.65,2.85-12.6,4.05-9.45,2.1-13.35,4.5-13.35,10.35,0,6.15,4.5,8.55,10.5,8.55,9.15,0,15.45-5.55,15.45-13.8Z"/>
    <path class="cls-1" d="M712.71,141.91h23.1c.9,7.65,6,11.4,14.1,11.4,7.35,0,12-2.7,12-7.65,0-6.9-9.3-7.65-19.5-9.45-13.35-2.25-27.6-5.85-27.6-23.85,0-16.2,15-24.6,33.15-24.6,21.75,0,33.45,9.45,34.65,24.6h-22.5c-.9-6.9-5.55-9-12.3-9-6,0-10.65,2.25-10.65,7.05,0,5.4,8.7,6.15,18.45,7.95,13.5,2.25,29.4,5.7,29.4,25.35,0,16.8-14.85,25.5-34.95,25.5-22.5,0-36.6-10.35-37.35-27.3Z"/>
    <path class="cls-1" d="M793.26,173.11h8.4c7.2,0,10.05-2.85,10.05-8.1,0-3.3-1.5-7.8-4.65-15.9l-22.65-59.1h25.8l10.35,32.7c2.4,7.5,4.8,17.7,4.8,17.7h.3s2.1-10.2,4.5-17.7l10.05-32.7h24.45l-26.55,77.85c-6.15,18-13.5,24.3-28.95,24.3h-15.9v-19.05Z"/>
    <path class="cls-1" d="M870.21,113.11c0-31.5,18.9-55.95,50.85-55.95,25.05,0,40.2,14.4,43.05,34.2h-13.2c-2.55-13.35-13.2-22.5-30.15-22.5-23.55,0-36.75,19.05-36.75,44.25s14.55,43.95,36.9,43.95c20.25,0,29.85-13.8,31.2-29.55h13.35c-.15,10.65-5.25,22.65-12.9,30.15-7.5,7.35-18.45,11.25-32.1,11.25-30.45,0-50.25-23.25-50.25-55.8Z"/>
    <path class="cls-1" d="M980.61,59.56h50.1c18.9,0,31.65,11.85,31.65,29.4,0,13.05-5.7,22.35-18.6,26.55v.45c10.95,3.9,14.4,11.4,15.45,27.3,1.2,17.25,3,21.6,4.95,22.95v.6h-14.55c-2.25-1.95-2.7-6-3.9-24-1.05-15.75-7.35-21.3-21.75-21.3h-29.85v45.3h-13.5V59.56ZM994.11,110.56h31.8c15,0,22.5-7.5,22.5-19.65,0-13.05-6-19.65-21.75-19.65h-32.55v39.3Z"/>
    <path class="cls-1" d="M1078.71,59.56h17.25l34.8,89.1h.3l34.5-89.1h17.55v107.25h-12.9v-88.2h-.3s-2.85,8.4-4.8,13.5l-29.4,74.7h-10.35l-29.4-74.7c-2.1-5.4-4.8-13.5-4.8-13.5h-.3v88.2h-12.15V59.56Z"/>
    <path class="cls-1" d="M1197.95,59.56h35.4v7.05h-13.5v35.85h-8.4v-35.85h-13.5v-7.05ZM1240.4,59.56h12l9.3,32.7h.15l9.45-32.7h12.15v42.9h-7.8v-32.85h-.3s-1.8,6.75-3.45,12.15l-6.15,20.7h-7.95l-6.15-20.7c-1.5-4.95-3.3-12.15-3.3-12.15h-.3v32.85h-7.65v-42.9Z"/>
  </g>
</svg>